<?xml version="1.0" encoding="utf-8"?>
<!-- Generator: Adobe Illustrator 16.0.0, SVG Export Plug-In . SVG Version: 6.00 Build 0)  -->
<!DOCTYPE svg PUBLIC "-//W3C//DTD SVG 1.1//EN" "http://www.w3.org/Graphics/SVG/1.1/DTD/svg11.dtd">
<svg version="1.1" id="config" xmlns="http://www.w3.org/2000/svg" xmlns:xlink="http://www.w3.org/1999/xlink" x="0px" y="0px"
	 width="16px" height="16px" viewBox="0 0 16 16" enable-background="new 0 0 16 16" xml:space="preserve">
<g>
	<path fill="#697F93" d="M15.181,6.32l-1.122-0.19c-0.117-0.377-0.268-0.742-0.452-1.089l0.662-0.926
		c0.28-0.394,0.237-0.932-0.106-1.273l-0.996-0.996c-0.188-0.188-0.435-0.291-0.699-0.291c-0.207,0-0.404,0.063-0.571,0.184
		L10.967,2.4c-0.361-0.19-0.739-0.348-1.13-0.464l-0.188-1.11C9.569,0.348,9.158,0,8.674,0H7.267C6.782,0,6.371,0.348,6.291,0.826
		L6.097,1.962C5.722,2.079,5.358,2.233,5.01,2.42L4.091,1.758C3.924,1.638,3.724,1.574,3.516,1.574
		c-0.264,0-0.515,0.104-0.698,0.291l-1,0.996C1.478,3.202,1.431,3.74,1.711,4.135L2.38,5.074C2.196,5.425,2.049,5.789,1.936,6.167
		l-1.11,0.187C0.348,6.434,0,6.845,0,7.33v1.408c0,0.484,0.348,0.896,0.826,0.976l1.136,0.194c0.117,0.374,0.271,0.738,0.458,1.086
		l-0.659,0.916c-0.281,0.394-0.237,0.933,0.107,1.273l0.996,0.996c0.187,0.187,0.435,0.29,0.698,0.29
		c0.208,0,0.405-0.063,0.572-0.184l0.939-0.668c0.338,0.177,0.692,0.32,1.056,0.434l0.188,1.123C6.397,15.652,6.809,16,7.293,16
		h1.411c0.484,0,0.896-0.348,0.976-0.826l0.19-1.123c0.378-0.116,0.742-0.267,1.09-0.451l0.926,0.662
		c0.167,0.12,0.367,0.184,0.574,0.184c0.265,0,0.512-0.104,0.699-0.29l0.996-0.996c0.341-0.341,0.388-0.879,0.106-1.273l-0.662-0.93
		c0.185-0.351,0.338-0.715,0.452-1.09l1.122-0.187C15.652,9.6,16,9.188,16,8.704V7.296C16.007,6.812,15.659,6.401,15.181,6.32
		L15.181,6.32z M15.104,8.704c0,0.043-0.03,0.079-0.073,0.086l-1.404,0.234c-0.177,0.03-0.317,0.16-0.361,0.331
		c-0.127,0.491-0.32,0.963-0.581,1.4c-0.091,0.153-0.084,0.344,0.02,0.491l0.826,1.163c0.022,0.033,0.02,0.084-0.01,0.114
		l-0.996,0.995c-0.023,0.023-0.047,0.027-0.064,0.027c-0.02,0-0.036-0.007-0.05-0.017l-1.159-0.826
		c-0.145-0.104-0.338-0.11-0.492-0.02c-0.438,0.261-0.908,0.454-1.4,0.581c-0.174,0.044-0.304,0.188-0.331,0.361L8.79,15.03
		c-0.006,0.044-0.043,0.074-0.086,0.074H7.296c-0.043,0-0.08-0.03-0.087-0.074l-0.234-1.403c-0.03-0.178-0.16-0.317-0.331-0.361
		c-0.478-0.123-0.939-0.314-1.371-0.562c-0.07-0.04-0.15-0.06-0.227-0.06c-0.09,0-0.184,0.026-0.261,0.083L3.617,13.56
		c-0.017,0.011-0.034,0.018-0.05,0.018c-0.013,0-0.04-0.004-0.063-0.027l-0.996-0.996c-0.03-0.029-0.033-0.076-0.01-0.113
		l0.822-1.153c0.104-0.147,0.11-0.341,0.02-0.495c-0.261-0.434-0.461-0.905-0.588-1.396C2.704,9.225,2.563,9.095,2.39,9.064
		l-1.414-0.24C0.933,8.817,0.903,8.78,0.903,8.737V7.33c0-0.043,0.03-0.08,0.073-0.087L2.37,7.009
		c0.178-0.03,0.321-0.16,0.365-0.334c0.124-0.491,0.314-0.966,0.571-1.404c0.09-0.154,0.08-0.344-0.023-0.488L2.45,3.613
		C2.427,3.58,2.43,3.53,2.46,3.5l0.996-0.996C3.479,2.48,3.503,2.477,3.52,2.477c0.02,0,0.037,0.006,0.05,0.017l1.153,0.822
		c0.147,0.104,0.341,0.11,0.495,0.021c0.435-0.261,0.906-0.461,1.397-0.588c0.17-0.047,0.301-0.187,0.331-0.361l0.241-1.414
		c0.007-0.043,0.043-0.074,0.087-0.074h1.408c0.043,0,0.08,0.03,0.086,0.074l0.234,1.394c0.03,0.177,0.16,0.321,0.335,0.364
		c0.504,0.127,0.985,0.324,1.434,0.588c0.153,0.09,0.344,0.084,0.491-0.02l1.153-0.829c0.017-0.01,0.033-0.017,0.05-0.017
		c0.014,0,0.04,0.004,0.063,0.027l0.996,0.996c0.029,0.03,0.033,0.077,0.01,0.114l-0.825,1.16c-0.104,0.144-0.11,0.338-0.021,0.491
		c0.261,0.438,0.455,0.909,0.582,1.401c0.043,0.173,0.187,0.304,0.36,0.331l1.404,0.237c0.043,0.007,0.073,0.043,0.073,0.087v1.408
		H15.104z M15.104,8.704"/>
	<path fill="#697F93" d="M8.001,4.546c-1.905,0-3.452,1.547-3.452,3.452c0,1.905,1.547,3.453,3.452,3.453
		c1.906,0,3.453-1.548,3.453-3.453C11.454,6.093,9.907,4.546,8.001,4.546L8.001,4.546z M8.001,10.549
		c-1.407,0-2.55-1.144-2.55-2.551c0-1.407,1.143-2.55,2.55-2.55c1.408,0,2.55,1.143,2.55,2.55
		C10.552,9.405,9.409,10.549,8.001,10.549L8.001,10.549z M8.001,10.549"/>
</g>
</svg>
