<?xml version="1.0" encoding="utf-8"?>
<!-- Generator: Adobe Illustrator 16.0.0, SVG Export Plug-In . SVG Version: 6.00 Build 0)  -->
<!DOCTYPE svg PUBLIC "-//W3C//DTD SVG 1.1//EN" "http://www.w3.org/Graphics/SVG/1.1/DTD/svg11.dtd">
<svg version="1.1" id="Layer_1" xmlns="http://www.w3.org/2000/svg" xmlns:xlink="http://www.w3.org/1999/xlink" x="0px" y="0px"
	 width="20px" height="15.33px" viewBox="630.513 392.05 20 15.33" enable-background="new 630.513 392.05 20 15.33"
	 xml:space="preserve">
<g>
	<path fill="#B2EF86" d="M650.153,394.165l-1.756-1.754c-0.24-0.241-0.532-0.361-0.877-0.361s-0.638,0.12-0.878,0.361l-8.466,8.479
		l-3.793-3.808c-0.241-0.24-0.534-0.36-0.877-0.36c-0.344,0-0.637,0.12-0.878,0.36l-1.754,1.755
		c-0.241,0.241-0.361,0.533-0.361,0.878c0,0.344,0.121,0.637,0.361,0.878l4.67,4.672l1.755,1.754
		c0.242,0.241,0.534,0.361,0.877,0.361s0.637-0.12,0.878-0.361l1.754-1.754l9.343-9.343c0.24-0.241,0.361-0.534,0.361-0.879
		C650.515,394.699,650.394,394.407,650.153,394.165L650.153,394.165z"/>
</g>
</svg>
