<?xml version="1.0" encoding="utf-8"?>
<!-- Generator: Adobe Illustrator 16.0.0, SVG Export Plug-In . SVG Version: 6.00 Build 0)  -->
<!DOCTYPE svg PUBLIC "-//W3C//DTD SVG 1.1//EN" "http://www.w3.org/Graphics/SVG/1.1/DTD/svg11.dtd">
<svg version="1.1" id="Layer_1" xmlns="http://www.w3.org/2000/svg" xmlns:xlink="http://www.w3.org/1999/xlink" x="0px" y="0px"
	 width="15px" height="15px" viewBox="0 0 15 15" enable-background="new 0 0 15 15" xml:space="preserve">
<path fill="#E0515F" d="M14.861,12.048L14.861,12.048l-4.546-4.549l4.546-4.55l0,0c0.048-0.05,0.086-0.106,0.11-0.166
	c0.061-0.168,0.023-0.363-0.11-0.497l-2.147-2.15c-0.133-0.133-0.328-0.168-0.499-0.107c-0.057,0.024-0.114,0.06-0.167,0.107l0,0
	l-4.549,4.55L2.95,0.136C2.9,0.089,2.843,0.054,2.783,0.029C2.616-0.032,2.422,0.003,2.287,0.136l-2.15,2.15
	C0.003,2.42-0.032,2.615,0.029,2.783c0.024,0.06,0.06,0.116,0.107,0.166l0,0l4.552,4.55l-4.552,4.549l0,0
	c-0.048,0.051-0.083,0.107-0.107,0.17c-0.062,0.167-0.026,0.36,0.107,0.493l2.15,2.15c0.135,0.134,0.329,0.171,0.496,0.11
	c0.06-0.024,0.117-0.063,0.167-0.11l0,0l4.549-4.549l4.549,4.549l0,0c0.053,0.048,0.11,0.086,0.167,0.11
	c0.171,0.061,0.366,0.023,0.499-0.11l2.147-2.15c0.134-0.133,0.171-0.326,0.11-0.493C14.947,12.155,14.909,12.099,14.861,12.048
	L14.861,12.048z M14.861,12.048"/>
</svg>
