<?xml version="1.0" encoding="utf-8"?>
<!-- Generator: Adobe Illustrator 16.0.0, SVG Export Plug-In . SVG Version: 6.00 Build 0)  -->
<!DOCTYPE svg PUBLIC "-//W3C//DTD SVG 1.1//EN" "http://www.w3.org/Graphics/SVG/1.1/DTD/svg11.dtd">
<svg version="1.1" id="Layer_1" xmlns="http://www.w3.org/2000/svg" xmlns:xlink="http://www.w3.org/1999/xlink" x="0px" y="0px"
	 width="133px" height="25.661px" viewBox="132.225 25.511 133 25.661" enable-background="new 132.225 25.511 133 25.661"
	 xml:space="preserve">
<g>
	<path fill="#0EDCEF" d="M132.225,31.369c0-1.373,0.449-2.436,1.348-3.19c0.898-0.754,2.179-1.131,3.842-1.131
		c1.662,0,3.015,0.174,4.06,0.522v2.609c-1.044-0.406-2.311-0.608-3.798-0.608c-1.798,0-2.697,0.667-2.697,2v1.13
		c0,0.62,0.121,1.108,0.363,1.465c0.241,0.357,0.671,0.709,1.29,1.058l3.363,1.885c1.565,0.851,2.349,2.136,2.349,3.855v1.625
		c0,1.411-0.493,2.498-1.479,3.262s-2.374,1.146-4.161,1.146c-1.788,0-3.223-0.203-4.306-0.609V43.78
		c1.276,0.464,2.619,0.695,4.03,0.695c2.106,0,3.161-0.715,3.161-2.146v-0.985c0-0.58-0.106-1.029-0.319-1.348
		c-0.213-0.319-0.609-0.634-1.189-0.943l-3.276-1.797c-1.72-0.929-2.58-2.311-2.58-4.147V31.369z"/>
	<path fill="#0EDCEF" d="M150.608,30.18h2.696l-4.378,20.992h-2.639l0.87-4.319h-1.16L142.46,30.18h2.726
		c1.488,7.287,2.387,12.168,2.697,14.643c0.309-2.3,0.714-4.717,1.218-7.249L150.608,30.18z"/>
	<path fill="#0EDCEF" d="M156.987,30.934c1.236-0.542,2.392-0.812,3.465-0.812s1.952,0.324,2.639,0.971
		c0.686,0.647,1.029,1.58,1.029,2.798v12.961h-2.784V34.355c0-1.141-0.57-1.711-1.71-1.711c-0.831,0-1.672,0.213-2.523,0.638v13.57
		h-2.726V30.18h2.61V30.934z"/>
	<path fill="#0EDCEF" d="M166.121,34.442c0-2.938,1.701-4.407,5.103-4.407c1.218,0,2.3,0.135,3.248,0.406v2.523
		c-0.967-0.271-1.947-0.406-2.943-0.406c-0.996,0-1.692,0.165-2.087,0.493c-0.396,0.329-0.594,0.851-0.594,1.566v7.829
		c0,0.715,0.198,1.237,0.594,1.565c0.396,0.329,1.106,0.493,2.131,0.493c1.024,0,2-0.154,2.928-0.464v2.552
		c-1.122,0.271-2.214,0.405-3.277,0.405c-3.402,0-5.103-1.469-5.103-4.407V34.442z"/>
	<path fill="#0EDCEF" d="M190.477,27.193v19.659h-2.609v-9.307c0-1.991,0.096-3.933,0.29-5.828l-3.653,9.974h-2.523l-3.653-9.974
		c0.193,1.798,0.291,3.73,0.291,5.799v9.336h-2.581V27.193h3.044l4.175,11.656l4.176-11.656H190.477z"/>
	<path fill="#0EDCEF" d="M192.622,34.442c0-1.392,0.406-2.498,1.218-3.32c0.812-0.821,2.049-1.232,3.711-1.232
		s2.905,0.411,3.726,1.232c0.822,0.822,1.233,1.928,1.233,3.32v8.148c0,1.392-0.411,2.499-1.233,3.32
		c-0.821,0.821-2.063,1.232-3.726,1.232s-2.899-0.411-3.711-1.232c-0.812-0.821-1.218-1.929-1.218-3.32V34.442z M199.784,34.5
		c0-1.488-0.744-2.232-2.232-2.232c-1.489,0-2.232,0.745-2.232,2.232v8.032c0,1.489,0.744,2.233,2.232,2.233
		s2.232-0.744,2.232-2.233V34.5z"/>
	<path fill="#0EDCEF" d="M204.625,25.743h2.727v4.987c1.043-0.425,2.14-0.638,3.29-0.638s2.068,0.324,2.755,0.972
		c0.686,0.647,1.029,1.59,1.029,2.827v8.669c0,1.393-0.397,2.456-1.189,3.189c-0.793,0.735-1.846,1.103-3.16,1.103h-5.451V25.743
		L204.625,25.743z M211.671,34.355c0-1.141-0.59-1.711-1.769-1.711c-0.695,0-1.547,0.194-2.551,0.58v11.134h2.058
		c1.508,0,2.262-0.696,2.262-2.088V34.355z"/>
	<path fill="#0EDCEF" d="M219.53,27.121c0,1.073-0.532,1.609-1.596,1.609c-1.063,0-1.595-0.537-1.595-1.609s0.532-1.609,1.595-1.609
		C218.998,25.511,219.53,26.048,219.53,27.121z M216.572,30.383h2.726v16.47h-2.726V30.383L216.572,30.383z"/>
	<path fill="#0EDCEF" d="M221.732,25.743h2.727v21.108h-2.727V25.743z"/>
	<path fill="#0EDCEF" d="M226.603,42.446v-8.003c0-1.392,0.406-2.498,1.218-3.32c0.813-0.821,2.049-1.232,3.712-1.232
		c1.662,0,2.89,0.411,3.683,1.232c0.793,0.822,1.189,1.928,1.189,3.32v5.306h-7.134V42.3c0,0.773,0.237,1.344,0.711,1.71
		c0.474,0.368,1.305,0.551,2.493,0.551c1.189,0,2.344-0.174,3.465-0.521v2.493c-1.159,0.31-2.396,0.465-3.711,0.465
		C228.479,46.997,226.603,45.48,226.603,42.446z M229.271,37.545h4.553v-3.074c0-1.508-0.759-2.262-2.276-2.262
		s-2.276,0.754-2.276,2.262V37.545z"/>
	<path fill="#FFFFFF" d="M246.61,46.852l-1.072-5.219h-4.871l-1.073,5.219h-2.668l4.292-19.659h3.827l4.233,19.659H246.61z
		 M241.13,39.284h3.914l-1.972-9.54L241.13,39.284z"/>
	<path fill="#FFFFFF" d="M252.931,30.963c1.121-0.561,2.257-0.841,3.407-0.841s2.068,0.319,2.755,0.957
		c0.686,0.638,1.028,1.576,1.028,2.813v8.641c0,1.392-0.391,2.46-1.174,3.204s-1.832,1.116-3.146,1.116h-2.754v4.32h-2.727V30.18
		h2.61V30.963z M257.368,34.355c0-1.141-0.591-1.711-1.769-1.711c-0.852,0-1.701,0.213-2.552,0.638v11.076h2.088
		c1.488,0,2.232-0.705,2.232-2.116V34.355z"/>
	<path fill="#FFFFFF" d="M265.225,27.121c0,1.073-0.532,1.609-1.595,1.609c-1.063,0-1.595-0.537-1.595-1.609
		s0.531-1.609,1.595-1.609C264.693,25.511,265.225,26.048,265.225,27.121z M262.267,30.383h2.727v16.47h-2.727V30.383z"/>
</g>
</svg>
