<?xml version="1.0" encoding="utf-8"?>
<!-- Generator: Adobe Illustrator 16.0.0, SVG Export Plug-In . SVG Version: 6.00 Build 0)  -->
<!DOCTYPE svg PUBLIC "-//W3C//DTD SVG 1.1//EN" "http://www.w3.org/Graphics/SVG/1.1/DTD/svg11.dtd">
<svg version="1.1" id="Layer_1" xmlns="http://www.w3.org/2000/svg" xmlns:xlink="http://www.w3.org/1999/xlink" x="0px" y="0px"
	 width="24px" height="22.184px" viewBox="0 0 24 22.184" enable-background="new 0 0 24 22.184" xml:space="preserve">
<g>
	<path fill="#09ADDF" d="M19.519,5.794c-0.257-1.525-1.012-2.917-2.166-3.973C16.069,0.646,14.401,0,12.664,0
		c-1.343,0-2.65,0.385-3.771,1.11C7.96,1.712,7.186,2.527,6.638,3.484C6.401,3.44,6.154,3.415,5.908,3.415
		c-2.098,0-3.805,1.708-3.805,3.805c0,0.271,0.029,0.533,0.079,0.79C0.824,8.997,0,10.586,0,12.279c0,1.367,0.508,2.695,1.436,3.746
		c0.953,1.076,2.211,1.713,3.553,1.786h4.284c0.37,0,0.666-0.296,0.666-0.666s-0.296-0.666-0.666-0.666H5.049
		c-2.019-0.123-3.716-2.043-3.716-4.205c0-1.397,0.75-2.7,1.959-3.405c0.281-0.163,0.399-0.503,0.291-0.81
		C3.484,7.792,3.435,7.511,3.435,7.21c0-1.362,1.11-2.472,2.473-2.472c0.291,0,0.577,0.049,0.844,0.148
		c0.326,0.119,0.686-0.03,0.834-0.34c0.923-1.959,2.917-3.223,5.083-3.223c2.911,0,5.315,2.182,5.592,5.074
		c0.029,0.301,0.256,0.543,0.553,0.592c2.196,0.375,3.854,2.403,3.854,4.718c0,2.453-1.93,4.585-4.309,4.768h-3.638
		c-0.37,0-0.666,0.296-0.666,0.666s0.296,0.667,0.666,0.667h3.712c1.505-0.109,2.911-0.8,3.958-1.955
		C23.433,14.707,24,13.236,24,11.706C23.995,8.938,22.105,6.475,19.519,5.794L19.519,5.794z M19.519,5.794"/>
	<path fill="#09ADDF" d="M16,12.91c0.262-0.262,0.262-0.681,0-0.942l-3.529-3.529c-0.123-0.123-0.296-0.197-0.469-0.197
		c-0.172,0-0.345,0.069-0.469,0.197l-3.529,3.529c-0.262,0.261-0.262,0.681,0,0.942c0.128,0.129,0.301,0.197,0.469,0.197
		c0.168,0,0.341-0.063,0.469-0.197l2.394-2.394v11.001c0,0.37,0.296,0.666,0.666,0.666s0.667-0.296,0.667-0.666V10.517l2.394,2.394
		C15.319,13.172,15.738,13.172,16,12.91L16,12.91z M16,12.91"/>
</g>
</svg>
